<?xml version="1.0" encoding="UTF-8"?>
<svg id="Layer_1" data-name="Layer 1" xmlns="http://www.w3.org/2000/svg" viewBox="0 0 1950.73 387.67">
  <defs>
    <style>
      .cls-1 {
        fill: #111b21;
      }

      .cls-2 {
        fill: #299646;
      }
    </style>
  </defs>
  <path class="cls-2" d="M280.42,233.28h-106.56c-126.64-7.77-118.67-121.72-118.67-121.72V51.89h52.06l.55,73.45h0c1.64,64.12,55.31,72.28,55.31,72.28V104.36l-.12,.04V46.38l.57-35.26s.41-10.17-10.33-10.98c-.56-.08-1.12-.14-1.7-.14H11.06C4.95,0,0,4.7,0,10.49c0,0,.17,32.99,.48,33.95V111.56c1.37,175.81,159.98,174.21,172.97,173.78h63.33v48.92l-62.84,.66C53.99,335.25,1.75,248.99,1.75,248.99c20.24,146.91,171.85,138.59,171.85,138.59l.27-.2v.1h106.56c6.11,0,11.06-4.7,11.06-10.49V243.77c0-5.79-4.95-10.49-11.06-10.49Z"/>
  <path class="cls-1" d="M558.74,268.66c17.81,14.49,39.51,21.84,64.49,21.84s46.66-7.35,64.49-21.84c17.75-14.44,26.39-34.16,26.39-60.27V97.18h-45.62v111.21c0,12.56-4.63,22.48-13.77,29.48-8.72,6.68-19.32,10.07-31.49,10.07s-22.77-3.39-31.49-10.07c-9.13-6.99-13.77-16.91-13.77-29.48V97.18h-45.62v111.21c0,26.12,8.63,45.84,26.39,60.27"/>
  <path class="cls-1" d="M937.05,148.82c8.56-6.73,19.08-10.15,31.27-10.15s22.32,3.49,31.24,10.38c9.3,7.2,14.02,17.24,14.02,29.82v111.61h45.62v-111.51c0-26.81-9.1-46.62-27.81-60.57-18.92-14.09-41.58-21.24-67.33-21.24-11.82,0-23.38,1.87-34.36,5.55-10.71,3.6-19.25,8.66-25.38,15.06l-3.06,3.19-3.67-2.48c-7.53-5.09-16.69-10.01-27.2-14.62-10.14-4.44-23.35-6.7-39.26-6.7-19.2,0-39.18,6.41-59.41,19.04-19.73,12.32-29.33,32.95-29.33,63.07v111.21h45.61v-112.02c0-12.64,4.63-22.61,13.76-29.65,8.73-6.73,19.33-10.15,31.5-10.15s22.7,3.43,31.27,10.18c8.92,7.04,13.45,17,13.45,29.61v112.02h45.61v-111.61c0-12.93,4.53-23.05,13.45-30.06"/>
  <rect class="cls-1" x="1099.58" y="97.44" width="41.16" height="192.79"/>
  <path class="cls-1" d="M1240.84,149.77c8.9-6.66,19.39-10.04,31.17-10.04,12.53,0,23.23,3.4,31.79,10.11,8.93,7.01,13.46,16.92,13.46,29.45v111.21h45.62v-111.21c0-26.12-8.63-45.83-26.39-60.27-17.82-14.49-39.52-21.84-64.49-21.84s-46.67,7.35-64.48,21.84c-17.76,14.44-26.39,34.15-26.39,60.27v111.21h45.62v-111.21c0-12.58,4.74-22.51,14.08-29.52"/>
  <path class="cls-1" d="M1642.78,268.66c17.81,14.49,39.51,21.84,64.49,21.84s46.67-7.35,64.49-21.84c17.75-14.44,26.38-34.16,26.38-60.27V97.18h-45.62v111.21c0,12.57-4.63,22.48-13.77,29.48-8.72,6.68-19.32,10.07-31.48,10.07s-22.77-3.39-31.49-10.07c-9.13-6.99-13.77-16.91-13.77-29.48V97.18h-45.61v111.21c0,26.12,8.63,45.84,26.38,60.27"/>
  <path class="cls-1" d="M1949.05,96.27c-25.24-4.8-47.67,9.41-48.55,9.97l-.11,.07c-30.19,17.21-37.19,69.89-37.26,86.95v.18c-.94,25.57-7.33,35.08-8.6,36.73l-.1,.14c-9.53,14.47-29.71,15.1-37.94,14.7l-2.1-.1v46.17l1.68,.32c3.64,.69,7.21,.99,10.67,.99,20.93,0,37.7-10.84,37.85-10.94l.14-.08c30.19-17.21,37.19-69.89,37.26-86.94v-.19c.94-25.57,7.33-35.08,8.6-36.73l.1-.14c9.53-14.47,29.71-15.1,37.94-14.7l2.1,.1v-46.17l-1.68-.32Z"/>
  <g>
    <path class="cls-1" d="M1417.66,261.6c18.37,19.66,42.41,29.63,71.47,29.63,14.09,0,27.53-2.54,39.94-7.56,12.34-4.99,25.56-14.91,39.29-29.5,13.33-14.16,20.08-34.46,20.08-60.32,0-11.94-2.32-24-6.9-35.84-4.56-11.78-11.51-22.59-20.65-32.14-9.1-9.49-19.99-16.85-32.34-21.85-12.43-5.02-25.69-7.56-39.42-7.56-28.72,0-53.02,10.14-72.25,30.15-17.95,19.42-27.06,42.04-27.06,67.23s9.37,48,27.84,67.76m30.31-105.64c10.42-11.14,24.09-16.78,40.64-16.78s30.56,5.48,40.65,16.28c9.98,10.69,15.04,23.87,15.04,39.16s-5.06,28.47-15.03,39.16c-10.08,10.8-23.76,16.27-40.65,16.27s-30.43-5.71-41.36-16.97l-.13-.13c-9.76-10.84-14.72-23.73-14.72-38.32s5.23-27.63,15.56-38.65"/>
    <ellipse class="cls-2" cx="1488.5" cy="194.07" rx="38.17" ry="37.82"/>
  </g>
  <path class="cls-1" d="M436.62,252.34c-10.86,0-20.12-3.82-27.79-11.47-7.72-7.6-11.57-16.78-11.57-27.54V96.33h-39.36v117.01c0,21.56,7.67,39.96,23.01,55.2,15.39,15.2,33.95,22.8,55.71,22.8h78.72v-39h-78.72Z"/>
</svg>